<?xml version="1.0" encoding="utf-8"?>
<svg version="1.1" id="Layer_1" xmlns="http://www.w3.org/2000/svg" xmlns:xlink="http://www.w3.org/1999/xlink" x="0px" y="0px"
	 viewBox="0 0 512 512" style="enable-background:new 0 0 512 512;" xml:space="preserve">
<style type="text/css">
	.st0{fill:#ffa7a7be;}
	.st1{fill:#212121;}
</style>
<g>
	<g>
		<path class="st0" d="M357.4,209c-9.1-9.1-23.8-9.1-32.9,0l-66.4,66.4c-3.3-0.8-6.7-1.2-10.2-1.2c-24.4,0-44.3,19.9-44.3,44.4
			c0,24.5,19.9,44.4,44.3,44.4c24.5,0,44.4-19.9,44.4-44.4c0-3.5-0.4-6.9-1.2-10.2l66.4-66.4C366.5,232.9,366.5,218.1,357.4,209z"/>
	</g>
</g>
<g>
	<g>
		<path class="st1" d="M437.1,120.1c-99.8-99.8-262.3-99.8-362.2,0c-86.2,86.3-99.6,222.3-31.8,323.5c7.2,10.7,21.6,13.5,32.3,6.4
			c10.7-7.2,13.5-21.6,6.4-32.3c-19.1-28.4-30.3-60.2-33.9-92.6h21.9c12.9,0,23.3-10.4,23.3-23.3c0-12.9-10.4-23.3-23.3-23.3h-22
			C52,239.9,66.9,202.3,92,170.7l15.8,15.8c4.5,4.5,10.5,6.8,16.5,6.8c6,0,11.9-2.3,16.5-6.8c9.1-9.1,9.1-23.8,0-32.9l-15.9-15.9
			c32.1-25.7,70-40.7,108.8-44.8v22c0,12.9,10.4,23.3,23.3,23.3c12.9,0,23.3-10.4,23.3-23.3V93.2c38.2,4.4,75.4,19.3,106.9,44.6
			l-15.9,15.9c-9.1,9.1-9.1,23.8,0,32.9c4.5,4.5,10.5,6.8,16.5,6.8c6,0,11.9-2.3,16.5-6.8l15.8-15.8c25.1,31.6,40,69.1,44.2,107.8
			h-22c-12.9,0-23.3,10.4-23.3,23.3c0,12.9,10.4,23.3,23.3,23.3h21.9c-3.7,32.4-14.9,64.2-33.9,92.6c-7.2,10.7-4.3,25.1,6.4,32.3
			c4,2.7,8.5,3.9,12.9,3.9c7.5,0,14.9-3.6,19.4-10.3C536.7,342.4,523.3,206.4,437.1,120.1z"/>
	</g>
</g>
<g>
	<g>
		<path class="st0" d="M360.9,420.2H151.1c-12.9,0-23.3,10.4-23.3,23.3c0,12.9,10.4,23.3,23.3,23.3h209.9
			c12.9,0,23.3-10.4,23.3-23.3C384.2,430.6,373.8,420.2,360.9,420.2z"/>
	</g>
</g>
</svg>
