<?xml version="1.0" encoding="utf-8"?>
<!-- Generator: Adobe Illustrator 25.0.1, SVG Export Plug-In . SVG Version: 6.00 Build 0)  -->
<svg version="1.1" id="Layer_1" xmlns="http://www.w3.org/2000/svg" xmlns:xlink="http://www.w3.org/1999/xlink" x="0px" y="0px"
	 viewBox="0 0 512 512" style="enable-background:new 0 0 512 512;" xml:space="preserve">
<style type="text/css">
	.st0{fill:#ffa7a7be;}
	.st1{fill:#212121;}
</style>
<g>
	<g>
		<path class="st0" d="M441.1,72.7c5.8,0,11.5,2.2,15.9,6.6c8.8,8.8,8.8,23,0,31.8L354.3,213.9c-8.8,8.8-23,8.8-31.8,0
			c-8.8-8.8-8.8-23,0-31.8L425.2,79.3C429.6,74.9,435.4,72.7,441.1,72.7z"/>
	</g>
	<g>
		<path class="st0" d="M465.4,415c0,5.8-2.2,11.5-6.6,15.9c-8.8,8.8-23,8.8-31.8,0L324.2,328.2c-8.8-8.8-8.8-23,0-31.8
			c8.8-8.8,23-8.8,31.8,0l102.8,102.8C463.2,403.5,465.4,409.3,465.4,415z"/>
	</g>
	<g>
		<path class="st0" d="M70.9,439.3c-5.8,0-11.5-2.2-15.9-6.6c-8.8-8.8-8.8-23,0-31.8l102.8-102.8c8.8-8.8,23-8.8,31.8,0
			c8.8,8.8,8.8,23,0,31.8L86.8,432.7C82.4,437.1,76.6,439.3,70.9,439.3z"/>
	</g>
	<g>
		<path class="st0" d="M46.6,97c0-5.8,2.2-11.5,6.6-15.9c8.8-8.8,23-8.8,31.8,0l102.8,102.8c8.8,8.8,8.8,23,0,31.8
			c-8.8,8.8-23,8.8-31.8,0L53.2,112.9C48.8,108.5,46.6,102.7,46.6,97z"/>
	</g>
	<g>
		<g>
			<path class="st1" d="M447.2,210.3c-4.1-4.1-6.6-9.7-6.6-15.9v-86.9c0-5.5-4.5-9.9-9.9-9.9l-86.9,0c-12.4,0-22.5-10.1-22.5-22.5
				c0-12.4,10.1-22.5,22.5-22.5l124.5,0c9.6,0,17.4,7.8,17.4,17.4v124.5c0,12.4-10.1,22.5-22.5,22.5
				C456.9,216.9,451.3,214.3,447.2,210.3z"/>
		</g>
	</g>
	<g>
		<g>
			<path class="st1" d="M327.8,421.1c4.1-4.1,9.7-6.6,15.9-6.6h86.9c5.5,0,9.9-4.5,9.9-9.9l0-86.9c0-12.4,10.1-22.5,22.5-22.5
				c12.4,0,22.5,10.1,22.5,22.5l0,124.5c0,9.6-7.8,17.4-17.4,17.4H343.7c-12.4,0-22.5-10.1-22.5-22.5
				C321.2,430.8,323.8,425.2,327.8,421.1z"/>
		</g>
	</g>
	<g>
		<g>
			<path class="st1" d="M64.8,301.7c4.1,4.1,6.6,9.7,6.6,15.9v86.9c0,5.5,4.5,9.9,9.9,9.9l86.9,0c12.4,0,22.5,10.1,22.5,22.5
				c0,12.4-10.1,22.5-22.5,22.5l-124.5,0c-9.6,0-17.4-7.8-17.4-17.4V317.6c0-12.4,10.1-22.5,22.5-22.5
				C55.1,295.1,60.7,297.7,64.8,301.7z"/>
		</g>
	</g>
	<g>
		<g>
			<path class="st1" d="M184.2,90.9c-4.1,4.1-9.7,6.6-15.9,6.6H81.3c-5.5,0-9.9,4.5-9.9,9.9l0,86.9c0,12.4-10.1,22.5-22.5,22.5
				c-12.4,0-22.5-10.1-22.5-22.5l0-124.5c0-9.6,7.8-17.4,17.4-17.4h124.5c12.4,0,22.5,10.1,22.5,22.5
				C190.8,81.2,188.2,86.8,184.2,90.9z"/>
		</g>
	</g>
</g>
</svg>
